<?xml version="1.0" standalone="no"?>
<!DOCTYPE svg PUBLIC "-//W3C//DTD SVG 20010904//EN"
 "http://www.w3.org/TR/2001/REC-SVG-20010904/DTD/svg10.dtd">
<svg version="1.0" xmlns="http://www.w3.org/2000/svg"
 width="1280.000000pt" height="1280.000000pt" viewBox="0 0 1280.000000 1280.000000"
 preserveAspectRatio="xMidYMid meet">
<g transform="translate(0.000000,1280.000000) scale(0.100000,-0.100000)"
fill="#000000" stroke="none">
<path d="M9270 10029 c-206 -19 -463 -77 -645 -144 -234 -87 -504 -242 -715
-411 -110 -89 -297 -277 -380 -383 -249 -317 -408 -689 -455 -1066 -4 -27 -9
-58 -12 -67 -4 -17 -42 -18 -626 -18 l-622 0 -58 95 c-207 340 -490 594 -862
776 -308 150 -616 219 -977 219 -513 0 -964 -148 -1341 -441 -117 -91 -283
-251 -368 -355 -276 -338 -419 -742 -419 -1187 0 -528 196 -986 586 -1369 325
-319 679 -500 1139 -582 l120 -21 2 -920 3 -920 21 -17 c19 -16 46 -18 239
-18 189 0 219 -2 224 -16 3 -9 6 -155 6 -324 0 -296 1 -310 19 -320 13 -7 642
-10 1960 -10 l1940 0 15 22 c14 19 16 68 16 335 l0 313 378 0 c219 0 383 4
392 10 12 7 16 47 20 212 l5 203 25 0 c25 0 25 -1 30 -107 4 -95 8 -109 29
-132 l24 -26 408 0 c393 0 409 1 419 19 7 13 10 321 10 928 0 806 -2 911 -16
931 l-15 22 -408 0 c-375 0 -411 -1 -430 -17 -19 -17 -21 -30 -23 -158 l-3
-140 -25 0 -25 0 0 250 0 250 30 -1 c17 0 86 -10 155 -23 434 -77 967 -34
1375 110 361 127 705 352 980 641 348 365 536 757 606 1258 16 112 16 440 0
560 -53 417 -212 791 -474 1115 -89 110 -262 281 -382 378 -395 319 -833 495
-1354 547 -118 11 -415 11 -541 -1z m762 -643 c204 -39 414 -142 653 -321 141
-106 229 -187 309 -287 72 -90 131 -192 120 -210 -9 -14 -454 -231 -594 -289
-91 -37 -114 -43 -175 -43 -168 2 -409 153 -482 303 l-28 56 0 386 c0 312 3
389 14 402 17 21 82 22 183 3z m-889 -3 c26 -4 42 -13 48 -27 14 -34 82 -727
76 -778 -9 -72 -48 -136 -134 -219 -144 -140 -305 -190 -464 -143 -41 12 -762
271 -861 309 -25 10 -23 27 11 93 137 271 544 598 887 712 151 51 326 72 437
53z m-4717 -954 c165 -23 312 -85 500 -210 111 -75 284 -234 284 -263 0 -14
-48 -16 -501 -16 l-502 0 5 234 c3 174 7 238 17 250 16 19 84 21 197 5z m-751
-11 c2 -7 9 -114 15 -237 l10 -225 -25 -26 c-23 -24 -25 -33 -25 -121 0 -88
-2 -98 -30 -142 -92 -145 -243 -219 -400 -197 -71 10 -640 228 -648 248 -9 24
71 169 142 258 36 45 96 108 133 141 230 202 410 284 662 303 159 11 161 11
166 -2z m7718 -476 c35 -39 59 -168 60 -322 1 -246 -51 -481 -164 -744 -71
-165 -212 -366 -257 -366 -21 0 -447 392 -503 463 -82 102 -149 284 -149 400
0 83 114 229 272 347 121 91 177 113 459 179 140 33 257 60 260 60 3 1 13 -7
22 -17z m-1698 -49 c79 -41 125 -119 125 -210 -1 -108 -46 -170 -148 -199 -99
-29 -239 7 -288 73 -53 71 -63 189 -25 272 23 48 28 53 85 71 79 26 193 23
251 -7z m-6950 -779 c178 -22 304 -42 325 -53 23 -10 46 -34 68 -71 40 -68 49
-100 63 -221 14 -117 2 -225 -34 -301 -33 -72 -350 -433 -380 -433 -14 0 -40
23 -77 66 -147 177 -262 451 -291 696 -12 99 -9 320 4 341 11 16 -7 17 322
-24z m7007 -182 c75 -37 167 -117 232 -201 83 -109 427 -652 424 -669 -2 -10
-38 -34 -87 -59 -149 -75 -342 -106 -656 -106 -213 0 -342 12 -495 45 -111 23
-280 82 -292 100 -4 7 -8 72 -8 143 l0 130 149 240 c82 132 165 258 184 281
20 22 62 55 95 72 93 49 152 62 277 59 101 -2 116 -5 177 -35z m-6112 -1077
l0 -305 -29 0 c-38 0 -154 39 -222 76 -38 20 -54 35 -54 49 0 27 276 484 293
485 9 0 12 -68 12 -305z"/>
</g>
</svg>
