<?xml version="1.0" standalone="no"?>
<!DOCTYPE svg PUBLIC "-//W3C//DTD SVG 20010904//EN"
 "http://www.w3.org/TR/2001/REC-SVG-20010904/DTD/svg10.dtd">
<svg version="1.0" xmlns="http://www.w3.org/2000/svg"
 width="1211.000000pt" height="1280.000000pt" viewBox="0 0 1211.000000 1280.000000"
 preserveAspectRatio="xMidYMid meet">
<g transform="translate(0.000000,1280.000000) scale(0.100000,-0.100000)"
fill="#000000" stroke="none">
<path d="M5120 10663 c-14 -2 -70 -13 -125 -24 -75 -16 -166 -23 -370 -29
-191 -6 -287 -13 -328 -24 -77 -21 -342 -120 -442 -165 -80 -35 -80 -35 -260
-41 -166 -5 -184 -8 -235 -31 -82 -39 -291 -182 -334 -230 -67 -73 -106 -177
-136 -358 -15 -90 -21 -97 -167 -176 -266 -144 -308 -192 -505 -576 l-106
-206 51 -164 c65 -211 69 -279 20 -381 -18 -38 -43 -83 -57 -100 -13 -18 -43
-66 -65 -106 l-42 -72 31 -70 c27 -62 30 -78 28 -157 -3 -112 6 -126 126 -200
161 -99 253 -179 291 -254 29 -55 125 -178 186 -235 99 -94 363 -315 405 -340
56 -33 83 -27 113 26 44 79 103 90 477 90 l283 0 103 54 c139 73 260 122 338
137 126 23 195 -20 275 -171 85 -161 126 -173 291 -90 54 27 108 50 120 50 50
0 204 -129 204 -172 0 -13 -14 -43 -31 -68 -59 -87 -78 -135 -89 -226 -6 -49
-22 -130 -36 -180 -13 -51 -24 -99 -24 -107 0 -9 55 -71 123 -139 67 -68 138
-149 157 -181 19 -32 61 -98 92 -147 93 -145 91 -140 104 -305 11 -149 12
-151 63 -266 72 -162 71 -171 -27 -269 -42 -42 -90 -96 -105 -118 -71 -101
-85 -327 -31 -488 22 -69 107 -246 142 -297 39 -57 116 -194 137 -243 38 -91
56 -183 65 -334 9 -143 12 -160 40 -215 17 -33 65 -105 106 -160 88 -117 133
-194 170 -290 28 -74 54 -196 54 -249 0 -51 55 -150 102 -185 45 -33 125 -55
166 -45 15 4 44 15 64 26 62 31 174 49 363 58 203 11 271 25 365 77 105 57
178 123 442 401 l250 263 -7 122 -6 122 58 37 c32 20 86 50 120 67 79 39 130
84 138 120 7 34 -10 114 -60 271 l-36 114 66 97 c36 54 81 111 100 128 49 42
161 106 224 127 65 21 116 65 179 152 69 97 91 168 102 335 5 78 10 198 10
266 l0 123 -49 62 c-26 33 -56 76 -65 94 -20 38 -49 180 -66 323 -17 134 0
190 76 266 30 30 89 98 131 151 257 322 406 464 591 562 34 18 91 60 127 92
52 48 73 76 106 146 22 48 88 157 145 243 57 86 119 187 138 225 43 87 104
271 112 341 9 68 -3 83 -66 83 -57 0 -301 -73 -437 -131 -115 -49 -203 -70
-297 -70 -118 -1 -139 18 -150 136 -3 42 -17 84 -46 142 -36 73 -59 101 -184
226 l-142 142 -78 154 c-42 85 -102 192 -131 238 -68 103 -125 209 -160 293
-61 147 -311 660 -353 725 -25 39 -78 132 -118 207 -131 248 -142 257 -278
233 -165 -29 -233 -62 -342 -166 -80 -77 -105 -91 -120 -68 -8 14 108 133 164
166 45 27 76 72 66 97 -8 21 -40 25 -254 29 -185 4 -185 4 -313 46 -216 70
-265 60 -426 -87 -89 -81 -129 -102 -194 -102 -91 0 -163 22 -327 100 -91 43
-205 90 -255 105 -157 47 -415 197 -415 241 0 7 27 27 60 44 76 39 84 52 65
124 -39 148 -129 228 -235 209z m2938 -4389 c53 -37 6 -182 -93 -280 -63 -63
-94 -68 -129 -21 -18 25 -21 42 -21 130 1 113 9 138 58 167 41 25 152 28 185
4z"/>
</g>
</svg>
