<?xml version="1.0" standalone="no"?>
<!DOCTYPE svg PUBLIC "-//W3C//DTD SVG 20010904//EN"
 "http://www.w3.org/TR/2001/REC-SVG-20010904/DTD/svg10.dtd">
<svg version="1.0" xmlns="http://www.w3.org/2000/svg"
 width="1280.000000pt" height="1161.000000pt" viewBox="0 0 1280.000000 1161.000000"
 preserveAspectRatio="xMidYMid meet">
<metadata>
Created by potrace 1.15, written by Peter Selinger 2001-2017
</metadata>
<g transform="translate(0.000000,1161.000000) scale(0.100000,-0.100000)"
fill="#000000" stroke="none">
<path d="M3997 11599 c-617 -60 -1154 -396 -1493 -936 -226 -359 -368 -803
-436 -1357 -20 -159 -22 -230 -23 -587 l0 -406 -104 -54 c-841 -435 -1433
-974 -1726 -1571 -352 -718 -268 -1476 239 -2156 96 -129 136 -175 274 -316
310 -315 686 -587 1167 -840 l150 -80 0 -400 c0 -430 8 -542 61 -846 163 -947
623 -1608 1322 -1897 489 -203 1077 -202 1713 2 360 116 791 326 1152 561 54
35 102 64 107 64 5 0 53 -29 107 -64 446 -291 945 -517 1384 -627 1100 -275
2021 104 2503 1031 177 341 284 724 343 1225 14 119 18 233 18 551 l0 401 95
49 c744 385 1307 861 1625 1374 449 725 430 1534 -53 2250 -112 167 -196 268
-360 434 -309 314 -715 603 -1203 855 l-104 54 0 401 c-1 421 -8 538 -56 821
-138 822 -482 1412 -1032 1770 -243 158 -563 265 -882 295 -661 62 -1448 -178
-2240 -681 -77 -49 -146 -87 -154 -84 -8 3 -73 43 -145 89 -784 500 -1580 739
-2249 675z m418 -339 c502 -47 1079 -262 1622 -607 l62 -39 -182 -146 c-442
-354 -823 -726 -1240 -1210 -121 -142 -175 -198 -191 -198 -29 0 -371 -64
-536 -101 -523 -116 -1025 -269 -1452 -445 -60 -24 -112 -44 -115 -44 -12 0 6
647 22 785 82 707 308 1232 678 1580 342 322 814 473 1332 425z m4337 0 c971
-94 1568 -883 1658 -2190 11 -160 14 -583 4 -593 -4 -3 -23 1 -43 9 -303 131
-815 300 -1206 398 -301 75 -787 176 -851 176 -16 0 -62 47 -165 168 -435 509
-861 924 -1317 1281 l-132 104 62 40 c692 439 1425 662 1990 607z m-2224 -947
c289 -220 549 -449 828 -727 183 -184 417 -436 410 -443 -2 -3 -98 5 -212 16
-428 41 -546 46 -1154 46 -608 0 -726 -5 -1154 -46 -114 -11 -210 -19 -212
-16 -7 7 231 263 425 457 188 188 369 354 550 505 84 70 383 304 389 305 2 0
61 -43 130 -97z m692 -1467 c413 -31 860 -85 886 -106 24 -21 319 -417 438
-589 460 -667 871 -1417 1183 -2165 l74 -179 -57 -141 c-285 -704 -722 -1510
-1180 -2176 -134 -195 -431 -597 -458 -619 -27 -23 -508 -78 -971 -113 -230
-17 -1240 -17 -1470 0 -464 35 -944 90 -971 113 -27 22 -331 432 -456 614
-473 691 -904 1490 -1208 2241 l-32 80 77 185 c289 690 643 1352 1060 1979
247 371 539 764 578 779 27 10 394 55 612 75 138 13 345 27 585 40 175 9 1119
-4 1310 -18z m-3099 -294 c-452 -619 -930 -1448 -1246 -2162 -21 -47 -41 -89
-46 -94 -21 -23 -220 679 -298 1054 -60 291 -128 747 -113 762 10 10 252 111
395 164 250 94 566 192 847 265 171 44 490 117 518 118 19 1 12 -13 -57 -107z
m4691 67 c422 -94 814 -209 1180 -345 137 -51 380 -152 390 -162 8 -8 -22
-254 -58 -467 -44 -263 -130 -641 -205 -905 -63 -219 -141 -452 -149 -444 -4
5 -37 74 -73 154 -308 687 -731 1420 -1191 2063 -58 81 -99 147 -91 147 7 0
96 -18 197 -41z m-6708 -801 c74 -552 241 -1216 458 -1818 l70 -195 -22 -60
c-13 -33 -62 -175 -109 -315 -185 -541 -316 -1077 -388 -1577 -15 -106 -31
-193 -36 -193 -5 0 -59 28 -120 62 -809 446 -1334 985 -1527 1565 -118 356
-118 679 0 1033 151 455 501 882 1040 1267 152 109 576 363 605 363 7 0 19
-56 29 -132z m8788 43 c794 -453 1288 -966 1478 -1538 118 -357 118 -679 0
-1034 -193 -581 -718 -1121 -1527 -1567 -61 -34 -116 -62 -120 -62 -5 0 -17
60 -27 133 -74 551 -241 1215 -458 1817 l-70 194 27 76 c246 672 424 1360 501
1938 10 76 22 132 29 132 5 0 81 -40 167 -89z m-7987 -2705 c303 -679 780
-1501 1224 -2106 38 -52 66 -96 61 -98 -10 -4 -287 57 -472 103 -238 60 -450
123 -693 206 -216 73 -588 218 -606 236 -16 16 50 464 112 763 78 378 277
1077 299 1054 4 -5 38 -76 75 -158z m7129 -8 c163 -514 273 -1001 335 -1488
11 -85 17 -158 12 -163 -37 -37 -740 -289 -1031 -371 -259 -72 -722 -181 -740
-174 -5 2 23 46 61 98 470 641 936 1452 1274 2215 13 30 26 55 29 55 3 0 30
-78 60 -172z m-7471 -2077 c542 -217 1189 -395 1847 -509 l105 -18 84 -100
c452 -537 966 -1038 1419 -1383 76 -57 82 -64 65 -75 -76 -52 -328 -194 -473
-267 -1032 -518 -1912 -502 -2518 47 -368 334 -604 879 -687 1589 -16 140 -34
785 -22 785 4 0 85 -31 180 -69z m7857 -164 c0 -654 -97 -1154 -305 -1582
-357 -733 -1025 -1077 -1862 -960 -457 64 -976 272 -1510 604 l-45 28 83 64
c454 345 965 843 1420 1383 l84 100 105 18 c659 114 1319 296 1855 512 88 35
163 62 168 59 4 -2 7 -104 7 -226z m-5218 -452 c373 -41 591 -50 1198 -50 607
0 825 9 1198 50 187 21 179 22 147 -17 -87 -105 -402 -433 -547 -568 -256
-242 -659 -580 -774 -650 -30 -18 -28 -20 -216 126 -322 251 -668 567 -950
871 -97 103 -188 203 -203 221 -32 39 -40 38 147 17z"/>
<path d="M6230 7850 l0 -340 170 0 170 0 0 340 0 340 -170 0 -170 0 0 -340z"/>
<path d="M4707 7492 l-117 -117 243 -243 242 -242 120 120 120 120 -240 240
c-132 132 -242 240 -245 240 -3 0 -58 -53 -123 -118z"/>
<path d="M7725 7370 l-240 -240 120 -120 120 -120 242 242 243 243 -117 117
c-65 65 -120 118 -123 118 -3 0 -113 -108 -245 -240z"/>
<path d="M6285 7249 c-345 -27 -658 -171 -905 -419 -269 -270 -410 -586 -426
-960 -39 -867 684 -1571 1550 -1509 278 20 542 119 766 287 387 292 598 739
576 1222 -16 373 -158 692 -426 960 -237 238 -553 389 -865 415 -139 11 -172
12 -270 4z"/>
<path d="M4014 5967 c-2 -7 -3 -85 -2 -172 l3 -160 338 -3 337 -2 0 175 0 175
-335 0 c-265 0 -337 -3 -341 -13z"/>
<path d="M8110 5805 l0 -175 338 2 337 3 0 170 0 170 -337 3 -338 2 0 -175z"/>
<path d="M4832 4477 l-242 -242 120 -120 120 -120 243 243 242 242 -120 120
-120 120 -243 -243z"/>
<path d="M7605 4600 l-120 -120 243 -243 242 -242 120 120 120 120 -243 243
-242 242 -120 -120z"/>
<path d="M6230 3760 l0 -340 170 0 170 0 0 340 0 340 -170 0 -170 0 0 -340z"/>
</g>
</svg>
